# xmcd
#
# Track frame offsets: 
#        150
#        41771
#        58680
#        74997
#        97817
#        120081
#        142990
#        168473
#        184786
#        202355
#        222104
#        245869
#        283264
#
# Disc length: 4013 seconds
#
# Revision: 1
# Processed by: cddbd v1.5.2PL0 Copyright (c) Steve Scherf et al.
# Submitted via: ExactAudioCopy v1.3
#
DISCID=d10fab0d
DTITLE=Marc Breitfelder and Georg Schroeter - Still Alive
DYEAR=1900
DGENRE=Blues
TTITLE0=King bee blues
TTITLE1=Boogie woogie
TTITLE2=Route 66
TTITLE3=Station to station
TTITLE4=Walking
TTITLE5=Can´t be satisfied
TTITLE6=Still alive
TTITLE7=Rush hour
TTITLE8=Trouble in mind
TTITLE9=Flip Flop and Fly
TTITLE10=Little queenie
TTITLE11=Sunnyland
TTITLE12=Same old Blues
EXTD=
EXTT0=
EXTT1=
EXTT2=
EXTT3=
EXTT4=
EXTT5=
EXTT6=
EXTT7=
EXTT8=
EXTT9=
EXTT10=
EXTT11=
EXTT12=
PLAYORDER=
